<svg width="150" height="66" viewBox="0 0 150 66" fill="none" xmlns="http://www.w3.org/2000/svg">
<path d="M51.11 35.63C51.11 37.57 50.81 38.96 50.21 39.8C49.61 40.64 48.51 41.06 46.91 41.06H29.06C27.94 41.06 27.05 40.71 26.39 40.01C25.75 39.31 25.43 38.35 25.43 37.13V0.410019L25.79 0.0200195H49.94C50.04 0.50002 50.1 0.960019 50.12 1.40002C50.14 1.82002 50.15 2.21002 50.15 2.57002C50.15 2.93002 50.11 3.38002 50.03 3.92002C49.95 4.44002 49.82 4.94002 49.64 5.42002H35.42C34.98 5.42002 34.41 5.42002 33.71 5.42002C33.03 5.42002 32.34 5.41002 31.64 5.39002C31.64 6.19002 31.65 6.85002 31.67 7.37002C31.69 7.89002 31.7 8.55002 31.7 9.35002V17.69C32.4 17.69 33.08 17.69 33.74 17.69C34.42 17.67 34.98 17.66 35.42 17.66H46.7C46.8 18.08 46.88 18.54 46.94 19.04C47 19.54 47.03 19.96 47.03 20.3C47.03 20.66 47 21.09 46.94 21.59C46.88 22.07 46.8 22.53 46.7 22.97H35.42C34.98 22.97 34.42 22.97 33.74 22.97C33.08 22.95 32.4 22.93 31.7 22.91V32.72C31.7 33.26 31.69 33.76 31.67 34.22C31.65 34.68 31.64 35.19 31.64 35.75C32.22 35.71 32.83 35.68 33.47 35.66C34.11 35.64 34.82 35.63 35.6 35.63H51.11ZM56.1256 32.93C56.1256 30.65 56.6256 28.78 57.6256 27.32C58.6456 25.86 60.0156 24.78 61.7356 24.08C63.4756 23.36 65.4256 23 67.5856 23C68.4256 23 69.3456 23.03 70.3456 23.09C71.3656 23.13 72.3756 23.22 73.3756 23.36V21.05C73.3756 19.17 72.9456 17.82 72.0856 17C71.2256 16.18 70.0256 15.77 68.4856 15.77C66.9656 15.77 65.3956 16 63.7756 16.46C62.1756 16.9 60.5956 17.43 59.0356 18.05C58.5356 17.55 58.1156 16.87 57.7756 16.01C57.4356 15.13 57.2456 14.29 57.2056 13.49C58.9056 12.77 60.8956 12.13 63.1756 11.57C65.4756 11.01 67.6456 10.73 69.6856 10.73C72.6256 10.73 74.9956 11.55 76.7956 13.19C78.5956 14.83 79.4956 17.37 79.4956 20.81V33.11C79.4956 34.23 79.5956 35.22 79.7956 36.08C80.0156 36.92 80.4756 37.64 81.1756 38.24C80.9956 38.8 80.6856 39.4 80.2456 40.04C79.8056 40.66 79.3356 41.13 78.8356 41.45C77.5956 41.21 76.5856 40.75 75.8056 40.07C75.0456 39.39 74.4656 38.59 74.0656 37.67C72.9856 38.71 71.6856 39.66 70.1656 40.52C68.6456 41.36 66.9056 41.78 64.9456 41.78C62.9656 41.78 61.3156 41.34 59.9956 40.46C58.6956 39.58 57.7256 38.46 57.0856 37.1C56.4456 35.74 56.1256 34.35 56.1256 32.93ZM62.2756 32.51C62.2756 33.73 62.6256 34.77 63.3256 35.63C64.0256 36.47 65.0256 36.89 66.3256 36.89C67.4456 36.89 68.6356 36.58 69.8956 35.96C71.1556 35.34 72.3156 34.43 73.3756 33.23V27.56C72.4756 27.46 71.5556 27.39 70.6156 27.35C69.6956 27.31 68.8156 27.29 67.9756 27.29C66.1556 27.29 64.7456 27.75 63.7456 28.67C62.7656 29.59 62.2756 30.87 62.2756 32.51ZM89.0713 6.14002C89.0713 4.76002 89.3013 3.76002 89.7613 3.14002C90.2213 2.50002 91.1113 2.18002 92.4313 2.18002H94.7713L95.1313 2.57002V11.42L102.571 11.33C102.751 12.11 102.841 12.86 102.841 13.58C102.841 14.4 102.751 15.17 102.571 15.89L95.1313 15.8V33.74C95.1313 34.54 95.3213 35.18 95.7013 35.66C96.0813 36.12 96.7213 36.35 97.6213 36.35H101.731C102.071 37.27 102.241 38.31 102.241 39.47C102.241 39.71 102.231 39.95 102.211 40.19C102.211 40.41 102.181 40.62 102.121 40.82C101.121 40.94 100.051 41.04 98.9113 41.12C97.7713 41.22 96.6113 41.27 95.4313 41.27C91.1913 41.27 89.0713 39.21 89.0713 35.09V15.83L84.6913 15.89C84.5113 15.17 84.4213 14.4 84.4213 13.58C84.4213 12.86 84.5113 12.11 84.6913 11.33L89.0713 11.39V6.14002ZM105.473 38.81C105.493 38.11 105.703 37.33 106.103 36.47C106.503 35.61 106.973 34.94 107.513 34.46C108.773 35.16 110.123 35.78 111.563 36.32C113.003 36.86 114.463 37.13 115.943 37.13C117.583 37.13 118.873 36.78 119.813 36.08C120.773 35.38 121.263 34.48 121.283 33.38C121.283 31.58 120.033 30.22 117.533 29.3L114.053 28.01C111.973 27.25 110.183 26.2 108.683 24.86C107.183 23.52 106.433 21.72 106.433 19.46C106.433 17.62 106.893 16.04 107.813 14.72C108.753 13.4 110.023 12.39 111.623 11.69C113.223 10.97 115.033 10.61 117.053 10.61C118.673 10.61 120.393 10.82 122.213 11.24C124.053 11.66 125.593 12.17 126.833 12.77C126.853 13.53 126.693 14.36 126.353 15.26C126.013 16.16 125.573 16.84 125.033 17.3C123.973 16.84 122.743 16.4 121.343 15.98C119.943 15.56 118.503 15.35 117.023 15.35C115.703 15.35 114.643 15.67 113.843 16.31C113.063 16.93 112.673 17.77 112.673 18.83C112.673 19.67 112.973 20.37 113.573 20.93C114.193 21.49 115.133 22 116.393 22.46L120.083 23.81C122.323 24.63 124.153 25.77 125.573 27.23C126.993 28.67 127.703 30.54 127.703 32.84C127.703 35.62 126.623 37.81 124.463 39.41C122.323 40.99 119.483 41.78 115.943 41.78C113.823 41.78 111.873 41.48 110.093 40.88C108.313 40.28 106.773 39.59 105.473 38.81Z" fill="#009CBF"/>
<path d="M32.711 56.324C32.711 57.152 32.489 57.854 32.045 58.43C31.601 59 31.052 59.39 30.398 59.6C30.698 59.708 30.953 59.903 31.163 60.185C31.379 60.461 31.55 60.776 31.676 61.13L32.468 63.236C32.6 63.59 32.726 63.863 32.846 64.055C32.972 64.247 33.116 64.406 33.278 64.532C33.152 64.724 32.963 64.871 32.711 64.973C32.465 65.075 32.222 65.126 31.982 65.126C31.622 65.126 31.358 65.027 31.19 64.829C31.022 64.631 30.866 64.34 30.722 63.956L29.822 61.517C29.672 61.103 29.471 60.758 29.219 60.482C28.967 60.2 28.562 60.059 28.004 60.059H26.537V65C26.387 65.03 26.225 65.048 26.051 65.054C25.883 65.066 25.724 65.072 25.574 65.072C25.436 65.072 25.277 65.066 25.097 65.054C24.923 65.048 24.767 65.03 24.629 65V52.805L24.746 52.697C25.424 52.685 26.087 52.673 26.735 52.661C27.383 52.643 28.013 52.634 28.625 52.634C29.873 52.634 30.866 52.949 31.604 53.579C32.342 54.209 32.711 55.124 32.711 56.324ZM26.537 54.137V58.529C26.885 58.517 27.242 58.508 27.608 58.502C27.974 58.496 28.28 58.493 28.526 58.493C29.114 58.493 29.567 58.385 29.885 58.169C30.203 57.953 30.422 57.68 30.542 57.35C30.662 57.014 30.722 56.672 30.722 56.324C30.722 55.958 30.662 55.61 30.542 55.28C30.422 54.95 30.203 54.68 29.885 54.47C29.567 54.26 29.114 54.155 28.526 54.155C28.268 54.155 27.947 54.155 27.563 54.155C27.185 54.149 26.843 54.143 26.537 54.137ZM43.1435 63.389C43.1435 63.971 43.0535 64.388 42.8735 64.64C42.6935 64.892 42.3635 65.018 41.8835 65.018H36.5285C36.1925 65.018 35.9255 64.913 35.7275 64.703C35.5355 64.493 35.4395 64.205 35.4395 63.839V52.823L35.5475 52.706H42.7925C42.8225 52.85 42.8405 52.988 42.8465 53.12C42.8525 53.246 42.8555 53.363 42.8555 53.471C42.8555 53.579 42.8435 53.714 42.8195 53.876C42.7955 54.032 42.7565 54.182 42.7025 54.326H38.4365C38.3045 54.326 38.1335 54.326 37.9235 54.326C37.7195 54.326 37.5125 54.323 37.3025 54.317C37.3025 54.557 37.3055 54.755 37.3115 54.911C37.3175 55.067 37.3205 55.265 37.3205 55.505V58.007C37.5305 58.007 37.7345 58.007 37.9325 58.007C38.1365 58.001 38.3045 57.998 38.4365 57.998H41.8205C41.8505 58.124 41.8745 58.262 41.8925 58.412C41.9105 58.562 41.9195 58.688 41.9195 58.79C41.9195 58.898 41.9105 59.027 41.8925 59.177C41.8745 59.321 41.8505 59.459 41.8205 59.591H38.4365C38.3045 59.591 38.1365 59.591 37.9325 59.591C37.7345 59.585 37.5305 59.579 37.3205 59.573V62.516C37.3205 62.678 37.3175 62.828 37.3115 62.966C37.3055 63.104 37.3025 63.257 37.3025 63.425C37.4765 63.413 37.6595 63.404 37.8515 63.398C38.0435 63.392 38.2565 63.389 38.4905 63.389H43.1435ZM44.5549 63.893C44.5789 63.611 44.6689 63.335 44.8249 63.065C44.9869 62.789 45.1639 62.573 45.3559 62.417C45.8779 62.759 46.4569 63.047 47.0929 63.281C47.7289 63.515 48.3559 63.632 48.9739 63.632C49.6999 63.632 50.2639 63.476 50.6659 63.164C51.0679 62.846 51.2689 62.438 51.2689 61.94C51.2689 61.52 51.1279 61.148 50.8459 60.824C50.5639 60.494 50.1589 60.218 49.6309 59.996L47.4619 59.087C46.6999 58.769 46.0939 58.361 45.6439 57.863C45.1999 57.359 44.9779 56.723 44.9779 55.955C44.9779 55.301 45.1489 54.713 45.4909 54.191C45.8389 53.663 46.3189 53.246 46.9309 52.94C47.5429 52.628 48.2509 52.472 49.0549 52.472C49.8049 52.472 50.5099 52.568 51.1699 52.76C51.8299 52.952 52.3939 53.165 52.8619 53.399C52.8559 53.675 52.7869 53.951 52.6549 54.227C52.5289 54.497 52.3669 54.722 52.1689 54.902C51.6949 54.668 51.1789 54.47 50.6209 54.308C50.0629 54.14 49.5529 54.056 49.0909 54.056C48.4189 54.056 47.8909 54.218 47.5069 54.542C47.1289 54.866 46.9399 55.265 46.9399 55.739C46.9399 56.135 47.0779 56.459 47.3539 56.711C47.6299 56.963 47.9899 57.182 48.4339 57.368L50.5849 58.259C51.3529 58.577 51.9919 59.015 52.5019 59.573C53.0179 60.131 53.2759 60.815 53.2759 61.625C53.2759 62.315 53.1139 62.933 52.7899 63.479C52.4719 64.019 51.9859 64.448 51.3319 64.766C50.6779 65.078 49.8559 65.234 48.8659 65.234C48.1159 65.234 47.3599 65.114 46.5979 64.874C45.8359 64.634 45.1549 64.307 44.5549 63.893ZM57.0252 55.631C57.0252 55.391 57.0252 55.172 57.0252 54.974C57.0252 54.776 57.0252 54.551 57.0252 54.299C56.8992 54.299 56.7252 54.302 56.5032 54.308C56.2812 54.314 56.1072 54.317 55.9812 54.317H53.8482C53.8182 54.179 53.7972 54.041 53.7852 53.903C53.7732 53.765 53.7672 53.636 53.7672 53.516C53.7672 53.396 53.7732 53.267 53.7852 53.129C53.7972 52.991 53.8182 52.85 53.8482 52.706H62.1192C62.1912 52.94 62.2272 53.192 62.2272 53.462C62.2272 53.774 62.1402 53.996 61.9662 54.128C61.7922 54.254 61.5222 54.317 61.1562 54.317H59.9772C59.8572 54.317 59.6832 54.314 59.4552 54.308C59.2332 54.302 59.0622 54.299 58.9422 54.299H58.9332C58.9332 54.551 58.9332 54.776 58.9332 54.974C58.9392 55.172 58.9422 55.391 58.9422 55.631V65C58.7862 65.03 58.6212 65.048 58.4472 65.054C58.2792 65.066 58.1232 65.072 57.9792 65.072C57.8352 65.072 57.6762 65.066 57.5022 65.054C57.3342 65.048 57.1752 65.03 57.0252 65V55.631ZM65.4612 62.03C65.3952 62.03 65.2422 62.03 65.0022 62.03C64.7682 62.024 64.5732 62.018 64.4172 62.012L63.4632 65.018C63.3432 65.048 63.2112 65.066 63.0672 65.072C62.9232 65.084 62.7792 65.09 62.6352 65.09C62.2812 65.09 61.9692 65.048 61.6992 64.964L61.6452 64.874L65.7042 52.706C65.8542 52.682 66.0372 52.664 66.2532 52.652C66.4692 52.64 66.6582 52.634 66.8202 52.634C66.9702 52.634 67.1532 52.64 67.3692 52.652C67.5852 52.664 67.7592 52.685 67.8912 52.715L71.9322 64.883C71.7942 64.967 71.6232 65.027 71.4192 65.063C71.2212 65.105 71.0202 65.126 70.8162 65.126C70.5102 65.126 70.2732 65.057 70.1052 64.919C69.9372 64.781 69.7932 64.511 69.6732 64.109L69.0072 62.012C68.8512 62.018 68.6502 62.024 68.4042 62.03C68.1582 62.03 68.0022 62.03 67.9362 62.03H65.4612ZM65.9472 57.206L64.9122 60.455C65.0502 60.455 65.2182 60.452 65.4162 60.446C65.6202 60.44 65.7582 60.437 65.8302 60.437H67.6212C67.6872 60.437 67.8132 60.44 67.9992 60.446C68.1912 60.446 68.3622 60.449 68.5122 60.455L67.6842 57.854C67.5222 57.332 67.3542 56.78 67.1802 56.198C67.0122 55.61 66.8682 55.079 66.7482 54.605H66.6492C66.5592 55.007 66.4422 55.46 66.2982 55.964C66.1602 56.462 66.0432 56.876 65.9472 57.206ZM82.5211 60.68C82.5211 62.168 82.1071 63.299 81.2791 64.073C80.4511 64.847 79.3471 65.234 77.9671 65.234C76.5931 65.234 75.4921 64.847 74.6641 64.073C73.8421 63.299 73.4311 62.168 73.4311 60.68V52.742L73.5481 52.625H74.2771C74.6671 52.625 74.9431 52.724 75.1051 52.922C75.2671 53.12 75.3481 53.432 75.3481 53.858V60.68C75.3481 62.684 76.2241 63.686 77.9761 63.686C79.7281 63.686 80.6041 62.684 80.6041 60.68V52.706C80.7481 52.676 80.9011 52.658 81.0631 52.652C81.2311 52.64 81.3901 52.634 81.5401 52.634C81.6841 52.634 81.8461 52.64 82.0261 52.652C82.2121 52.658 82.3771 52.676 82.5211 52.706V60.68ZM93.7071 56.324C93.7071 57.152 93.4851 57.854 93.0411 58.43C92.5971 59 92.0481 59.39 91.3941 59.6C91.6941 59.708 91.9491 59.903 92.1591 60.185C92.3751 60.461 92.5461 60.776 92.6721 61.13L93.4641 63.236C93.5961 63.59 93.7221 63.863 93.8421 64.055C93.9681 64.247 94.1121 64.406 94.2741 64.532C94.1481 64.724 93.9591 64.871 93.7071 64.973C93.4611 65.075 93.2181 65.126 92.9781 65.126C92.6181 65.126 92.3541 65.027 92.1861 64.829C92.0181 64.631 91.8621 64.34 91.7181 63.956L90.8181 61.517C90.6681 61.103 90.4671 60.758 90.2151 60.482C89.9631 60.2 89.5581 60.059 89.0001 60.059H87.5331V65C87.3831 65.03 87.2211 65.048 87.0471 65.054C86.8791 65.066 86.7201 65.072 86.5701 65.072C86.4321 65.072 86.2731 65.066 86.0931 65.054C85.9191 65.048 85.7631 65.03 85.6251 65V52.805L85.7421 52.697C86.4201 52.685 87.0831 52.673 87.7311 52.661C88.3791 52.643 89.0091 52.634 89.6211 52.634C90.8691 52.634 91.8621 52.949 92.6001 53.579C93.3381 54.209 93.7071 55.124 93.7071 56.324ZM87.5331 54.137V58.529C87.8811 58.517 88.2381 58.508 88.6041 58.502C88.9701 58.496 89.2761 58.493 89.5221 58.493C90.1101 58.493 90.5631 58.385 90.8811 58.169C91.1991 57.953 91.4181 57.68 91.5381 57.35C91.6581 57.014 91.7181 56.672 91.7181 56.324C91.7181 55.958 91.6581 55.61 91.5381 55.28C91.4181 54.95 91.1991 54.68 90.8811 54.47C90.5631 54.26 90.1101 54.155 89.5221 54.155C89.2641 54.155 88.9431 54.155 88.5591 54.155C88.1811 54.149 87.8391 54.143 87.5331 54.137ZM98.9826 62.03C98.9166 62.03 98.7636 62.03 98.5236 62.03C98.2896 62.024 98.0946 62.018 97.9386 62.012L96.9846 65.018C96.8646 65.048 96.7326 65.066 96.5886 65.072C96.4446 65.084 96.3006 65.09 96.1566 65.09C95.8026 65.09 95.4906 65.048 95.2206 64.964L95.1666 64.874L99.2256 52.706C99.3756 52.682 99.5586 52.664 99.7746 52.652C99.9906 52.64 100.18 52.634 100.342 52.634C100.492 52.634 100.675 52.64 100.891 52.652C101.107 52.664 101.281 52.685 101.413 52.715L105.454 64.883C105.316 64.967 105.145 65.027 104.941 65.063C104.743 65.105 104.542 65.126 104.338 65.126C104.032 65.126 103.795 65.057 103.627 64.919C103.459 64.781 103.315 64.511 103.195 64.109L102.529 62.012C102.373 62.018 102.172 62.024 101.926 62.03C101.68 62.03 101.524 62.03 101.458 62.03H98.9826ZM99.4686 57.206L98.4336 60.455C98.5716 60.455 98.7396 60.452 98.9376 60.446C99.1416 60.44 99.2796 60.437 99.3516 60.437H101.143C101.209 60.437 101.335 60.44 101.521 60.446C101.713 60.446 101.884 60.449 102.034 60.455L101.206 57.854C101.044 57.332 100.876 56.78 100.702 56.198C100.534 55.61 100.39 55.079 100.27 54.605H100.171C100.081 55.007 99.9636 55.46 99.8196 55.964C99.6816 56.462 99.5646 56.876 99.4686 57.206ZM110.284 57.449C110.062 57.005 109.855 56.573 109.663 56.153C109.477 55.733 109.3 55.334 109.132 54.956L109.069 54.965C109.093 55.385 109.117 55.853 109.141 56.369C109.165 56.879 109.183 57.398 109.195 57.926C109.213 58.448 109.222 58.931 109.222 59.375V65C109.06 65.03 108.904 65.048 108.754 65.054C108.604 65.066 108.466 65.072 108.34 65.072C108.22 65.072 108.079 65.066 107.917 65.054C107.755 65.048 107.596 65.03 107.44 65V52.724C107.596 52.694 107.788 52.673 108.016 52.661C108.25 52.643 108.439 52.634 108.583 52.634C108.733 52.634 108.913 52.64 109.123 52.652C109.339 52.658 109.54 52.676 109.726 52.706L113.533 60.248C113.761 60.722 113.974 61.184 114.172 61.634C114.376 62.078 114.565 62.483 114.739 62.849L114.802 62.84C114.766 62.36 114.736 61.85 114.712 61.31C114.694 60.764 114.679 60.233 114.667 59.717C114.655 59.195 114.649 58.727 114.649 58.313V53.822C114.649 53.402 114.721 53.099 114.865 52.913C115.015 52.721 115.288 52.625 115.684 52.625H116.305L116.422 52.733V64.982C116.266 65.012 116.077 65.033 115.855 65.045C115.633 65.063 115.435 65.072 115.261 65.072C115.081 65.072 114.892 65.066 114.694 65.054C114.496 65.048 114.301 65.03 114.109 65L110.284 57.449ZM121.537 55.631C121.537 55.391 121.537 55.172 121.537 54.974C121.537 54.776 121.537 54.551 121.537 54.299C121.411 54.299 121.237 54.302 121.015 54.308C120.793 54.314 120.619 54.317 120.493 54.317H118.36C118.33 54.179 118.309 54.041 118.297 53.903C118.285 53.765 118.279 53.636 118.279 53.516C118.279 53.396 118.285 53.267 118.297 53.129C118.309 52.991 118.33 52.85 118.36 52.706H126.631C126.703 52.94 126.739 53.192 126.739 53.462C126.739 53.774 126.652 53.996 126.478 54.128C126.304 54.254 126.034 54.317 125.668 54.317H124.489C124.369 54.317 124.195 54.314 123.967 54.308C123.745 54.302 123.574 54.299 123.454 54.299H123.445C123.445 54.551 123.445 54.776 123.445 54.974C123.451 55.172 123.454 55.391 123.454 55.631V65C123.298 65.03 123.133 65.048 122.959 65.054C122.791 65.066 122.635 65.072 122.491 65.072C122.347 65.072 122.188 65.066 122.014 65.054C121.846 65.048 121.687 65.03 121.537 65V55.631Z" fill="black"/>
<path d="M5 25C7.76142 25 10 22.7614 10 20C10 17.2386 7.76142 15 5 15C2.23858 15 0 17.2386 0 20C0 22.7614 2.23858 25 5 25Z" fill="#E78200"/>
<path d="M145 25C147.761 25 150 22.7614 150 20C150 17.2386 147.761 15 145 15C142.239 15 140 17.2386 140 20C140 22.7614 142.239 25 145 25Z" fill="#E78200"/>
</svg>
